<?xml version="1.0" standalone="no"?>
<!DOCTYPE svg PUBLIC "-//W3C//DTD SVG 20010904//EN"
 "http://www.w3.org/TR/2001/REC-SVG-20010904/DTD/svg10.dtd">
<svg version="1.0" xmlns="http://www.w3.org/2000/svg"
 width="640.000000pt" height="1030.000000pt" viewBox="0 0 640.000000 1030.000000"
 preserveAspectRatio="xMidYMid meet">

<g transform="translate(0.000000,1030.000000) scale(0.100000,-0.100000)"
fill="#ffffff" stroke="none">
<path d="M2428 9012 l-757 -827 -1 -997 0 -998 595 0 595 0 0 806 0 805 166
185 c161 179 168 185 185 167 9 -10 85 -94 168 -187 l151 -169 0 -478 0 -479
595 0 595 0 0 670 0 671 -761 829 c-419 457 -764 830 -768 829 -3 0 -347 -373
-763 -827z"/>
<path d="M460 4712 l0 -1268 1431 -1492 c787 -821 1435 -1489 1440 -1486 8 5
434 492 2202 2517 l417 477 -2 1258 -3 1257 -492 3 -493 2 0 -305 0 -305 195
0 195 0 0 -842 0 -843 -1018 -1167 c-559 -642 -1021 -1167 -1027 -1166 -5 0
-513 525 -1127 1166 l-1118 1167 0 843 0 842 1235 0 1235 0 0 -624 0 -624
-146 -163 c-80 -90 -156 -175 -169 -187 l-22 -24 -167 185 -166 185 0 521 0
521 -595 0 -595 0 0 -712 0 -713 758 -827 c416 -454 760 -827 763 -827 4 -1
349 372 768 829 l761 830 0 1120 0 1120 -2130 0 -2130 0 0 -1268z"/>
</g>
</svg>
